<svg width="283" height="265" viewBox="0 0 283 265" fill="none" xmlns="http://www.w3.org/2000/svg">
<path d="M131.062 8.37906C134.401 -1.65837 148.599 -1.65838 151.938 8.37905L177.725 85.9025C179.22 90.3977 183.425 93.4306 188.162 93.4306H271.051C281.77 93.4306 286.159 107.198 277.418 113.401L210.806 160.675C206.86 163.475 205.208 168.526 206.735 173.117L232.283 249.921C235.638 260.01 224.149 268.517 215.478 262.363L147.866 214.379C144.053 211.673 138.947 211.673 135.134 214.379L67.5215 262.363C58.8505 268.517 47.3615 260.01 50.7175 249.921L76.2649 173.117C77.7922 168.526 76.1397 163.475 72.1936 160.675L5.58228 113.401C-3.15854 107.198 1.23026 93.4306 11.9486 93.4306H94.8377C99.575 93.4306 103.78 90.3977 105.275 85.9026L131.062 8.37906Z" fill="#FFC700"/>
</svg>
