<svg width="164" height="166" viewBox="0 0 164 166" fill="none" xmlns="http://www.w3.org/2000/svg">
<path d="M71.4637 8.12971C74.5989 -2.32347 89.4011 -2.3235 92.5363 8.12969L103.896 46.0051C105.292 50.6583 109.574 53.845 114.432 53.845L152.953 53.845C163.395 53.845 167.962 67.0306 159.757 73.4887L127.117 99.1786C123.567 101.973 122.086 106.655 123.385 110.982L135.488 151.338C138.575 161.63 126.591 169.787 118.149 163.142L88.8034 140.045C84.8118 136.903 79.1882 136.903 75.1966 140.045L45.8514 163.142C37.4086 169.787 25.4251 161.63 28.5117 151.338L40.6155 110.982C41.9135 106.655 40.433 101.973 36.8826 99.1786L4.24338 73.4887C-3.9617 67.0306 0.604977 53.845 11.0467 53.845L49.5676 53.845C54.4255 53.845 58.7083 50.6583 60.1039 46.0051L71.4637 8.12971Z" fill="#C9C3C3"/>
</svg>
