<svg width="106" height="101" viewBox="0 0 106 101" fill="none" xmlns="http://www.w3.org/2000/svg">
<path d="M42.5842 7.67134C45.9633 -2.27915 60.0367 -2.27915 63.4158 7.67134L68.6513 23.0883C70.1665 27.55 74.3551 30.5512 79.0671 30.5512H94.94C105.713 30.5512 110.064 44.4341 101.219 50.5833L89.2252 58.9204C85.1986 61.7196 83.5112 66.8461 85.0881 71.4897L89.8643 85.5542C93.2771 95.6037 81.8844 104.181 73.1699 98.1234L59.2786 88.467C55.5041 85.8431 50.4959 85.8431 46.7214 88.467L32.8301 98.1234C24.1156 104.181 12.7229 95.6038 16.1357 85.5542L20.9119 71.4897C22.4888 66.8461 20.8014 61.7196 16.7748 58.9204L4.7814 50.5833C-4.0645 44.4341 0.286814 30.5512 11.0601 30.5512H26.9329C31.6449 30.5512 35.8335 27.55 37.3487 23.0883L42.5842 7.67134Z" fill="#FFC700" fill-opacity="0.91"/>
</svg>
