<svg width="216" height="208" viewBox="0 0 216 208" fill="none" xmlns="http://www.w3.org/2000/svg">
<path d="M97.5312 8.45499C100.81 -1.70916 115.19 -1.7092 118.469 8.45496L136.299 63.7325C137.765 68.2761 141.994 71.3557 146.768 71.3557H204.639C215.275 71.3557 219.718 84.9506 211.135 91.2324L164.18 125.596C160.352 128.398 158.751 133.336 160.207 137.85L178.11 193.351C181.384 203.5 169.75 211.903 161.145 205.605L114.496 171.466C110.628 168.635 105.372 168.635 101.504 171.466L54.8553 205.605C46.2501 211.903 34.6164 203.5 37.89 193.351L55.7928 137.85C57.2488 133.336 55.6477 128.398 51.8204 125.596L4.86504 91.2324C-3.71843 84.9506 0.724844 71.3557 11.3614 71.3557H69.2317C74.0058 71.3557 78.2349 68.2761 79.7005 63.7325L97.5312 8.45499Z" fill="#FFC700" fill-opacity="0.87"/>
</svg>
