<svg width="138" height="135" viewBox="0 0 138 135" fill="none" xmlns="http://www.w3.org/2000/svg">
<path d="M58.5081 8.31034C61.7399 -1.95012 76.2601 -1.95011 79.4919 8.31035L87.905 35.021C89.3477 39.6012 93.5948 42.7163 98.3969 42.7163L126.332 42.7163C136.905 42.7163 141.39 56.1775 132.929 62.5185L109.747 79.8936C106.011 82.6937 104.449 87.5472 105.852 92.0004L114.567 119.67C117.778 129.865 106.031 138.187 97.4781 131.777L75.5971 115.377C71.6872 112.447 66.3128 112.447 62.4029 115.377L40.5219 131.777C31.9688 138.187 20.2218 129.865 23.4329 119.67L32.148 92.0004C33.5507 87.5472 31.9893 82.6937 28.2533 79.8936L5.07065 62.5185C-3.38981 56.1775 1.09476 42.7163 11.6677 42.7163L39.6031 42.7163C44.4052 42.7163 48.6523 39.6013 50.095 35.021L58.5081 8.31034Z" fill="#FFC700" fill-opacity="0.87"/>
</svg>
