<svg width="132" height="125" viewBox="0 0 132 125" fill="none" xmlns="http://www.w3.org/2000/svg">
<path d="M55.5549 7.62836C58.8796 -2.43901 73.1204 -2.439 76.4452 7.62837L84.3863 31.6744C85.8746 36.181 90.0854 39.2249 94.8314 39.2249H120.144C130.843 39.2249 135.245 52.9518 126.541 59.1737L106.372 73.5911C102.454 76.3919 100.813 81.416 102.324 85.9893L110.1 109.536C113.436 119.639 101.914 128.122 93.2579 121.934L72.3968 107.022C68.5708 104.288 63.4292 104.288 59.6032 107.022L38.7421 121.934C30.0864 128.122 18.5637 119.639 21.9002 109.536L29.6764 85.9893C31.1868 81.416 29.5463 76.3919 25.6281 73.5911L5.459 59.1737C-3.2451 52.9518 1.1566 39.2249 11.8558 39.2249H37.1686C41.9146 39.2249 46.1254 36.181 47.6137 31.6744L55.5549 7.62836Z" fill="#FFC700" fill-opacity="0.92"/>
</svg>
