<svg width="392" height="365" viewBox="0 0 392 365" fill="none" xmlns="http://www.w3.org/2000/svg">
<path d="M185.565 8.27662C188.91 -1.74841 203.09 -1.74838 206.435 8.27666L245.13 124.261C246.628 128.752 250.831 131.78 255.564 131.78H380.153C390.88 131.78 395.263 145.564 386.507 151.76L286.217 222.724C282.259 225.524 280.602 230.585 282.136 235.184L320.561 350.358C323.925 360.442 312.45 368.959 303.773 362.819L202.354 291.056C198.546 288.362 193.454 288.362 189.646 291.056L88.2274 362.819C79.5501 368.959 68.075 360.442 71.4391 350.358L109.864 235.184C111.398 230.585 109.741 225.524 105.783 222.724L5.49287 151.76C-3.26308 145.564 1.1204 131.78 11.8466 131.78H136.436C141.169 131.78 145.372 128.752 146.87 124.261L185.565 8.27662Z" fill="#FF9900" fill-opacity="0.88"/>
</svg>
