<svg width="197" height="197" viewBox="0 0 197 197" fill="none" xmlns="http://www.w3.org/2000/svg">
<path d="M45.0334 13.8579C42.8292 3.32825 55.4921 -3.77897 63.3323 3.58748L100.631 38.6323C104.131 41.9206 109.359 42.5585 113.547 40.2081L157.552 15.5098C166.771 10.3351 177.27 19.8779 172.997 29.5483L152.079 76.8853C150.192 81.1554 151.206 86.1514 154.608 89.348L192.643 125.085C200.433 132.404 194.261 145.411 183.665 144.006L133.982 137.419C129.137 136.777 124.45 139.408 122.475 143.878L102.217 189.719C97.897 199.496 83.5795 197.989 81.3894 187.527L70.6958 136.445C69.7392 131.875 66.0027 128.408 61.3748 127.794L10.0707 120.993C-0.410131 119.603 -3.08715 105.67 6.13247 100.496L50.1372 75.7975C54.325 73.4471 56.504 68.6517 55.52 63.9513L45.0334 13.8579Z" fill="#C9C3C3"/>
</svg>
